<svg xmlns="http://www.w3.org/2000/svg" viewBox="0 0 500 500"><g id="freepik--background-simple--inject-143"><path d="M94.89,83.93S8,181.85,24.3,212.61s91.69-6.56,86.14,7.54S21.85,320.37,52,358.82s160.73-41.59,151.25-7-8.11,76.39,47.42,69.07,114.68-121.47,110.77-98.49-16.09,104.84,38.11,82.1,81.53-127.38,69.73-199.82-45.91-35.42-59.38-38,35.54-102,9.29-127.33S267.24,107,253.34,112s33.61-82.15-10-86.38S153.27,30.3,94.89,83.93Z" style="fill:#407BFF"></path><path d="M94.89,83.93S8,181.85,24.3,212.61s91.69-6.56,86.14,7.54S21.85,320.37,52,358.82s160.73-41.59,151.25-7-8.11,76.39,47.42,69.07,114.68-121.47,110.77-98.49-16.09,104.84,38.11,82.1,81.53-127.38,69.73-199.82-45.91-35.42-59.38-38,35.54-102,9.29-127.33S267.24,107,253.34,112s33.61-82.15-10-86.38S153.27,30.3,94.89,83.93Z" style="fill:#fff;opacity:0.7000000000000001"></path></g><g id="freepik--Graphic--inject-143"><g style="opacity:0.2"><rect x="149.95" y="179.79" width="26.86" height="9.77"></rect><rect x="149.95" y="165.95" width="26.86" height="9.77"></rect><rect x="149.95" y="152.11" width="26.86" height="9.77"></rect><rect x="149.95" y="138.28" width="26.86" height="9.77"></rect><rect x="219.56" y="179.79" width="26.86" height="9.77"></rect><rect x="219.56" y="165.95" width="26.86" height="9.77"></rect><rect x="80.35" y="179.79" width="26.86" height="9.77"></rect><rect x="80.35" y="165.95" width="26.86" height="9.77"></rect><rect x="115.15" y="179.79" width="26.86" height="9.77"></rect><rect x="115.15" y="165.95" width="26.86" height="9.77"></rect><rect x="115.15" y="152.11" width="26.86" height="9.77"></rect><rect x="115.15" y="138.28" width="26.86" height="9.77"></rect><rect x="115.15" y="124.44" width="26.86" height="9.77"></rect><rect x="115.15" y="110.6" width="26.86" height="9.77"></rect><rect x="115.15" y="96.76" width="26.86" height="9.77"></rect><rect x="184.75" y="179.79" width="26.86" height="9.77"></rect><rect x="184.75" y="165.95" width="26.86" height="9.77"></rect><rect x="184.75" y="152.11" width="26.86" height="9.77"></rect><rect x="184.75" y="138.28" width="26.86" height="9.77"></rect><rect x="184.75" y="124.44" width="26.86" height="9.77"></rect><rect x="184.75" y="110.6" width="26.86" height="9.77"></rect><rect x="323.73" y="179.79" width="26.86" height="9.77"></rect><rect x="323.73" y="165.95" width="26.86" height="9.77"></rect><rect x="323.73" y="152.11" width="26.86" height="9.77"></rect><rect x="323.73" y="138.28" width="26.86" height="9.77"></rect><rect x="393.33" y="179.79" width="26.86" height="9.77"></rect><rect x="393.33" y="165.95" width="26.86" height="9.77"></rect><rect x="254.13" y="179.79" width="26.86" height="9.77"></rect><rect x="254.13" y="165.95" width="26.86" height="9.77"></rect><rect x="288.93" y="179.79" width="26.86" height="9.77"></rect><rect x="288.93" y="165.95" width="26.86" height="9.77"></rect><rect x="288.93" y="152.11" width="26.86" height="9.77"></rect><rect x="288.93" y="138.28" width="26.86" height="9.77"></rect><rect x="288.93" y="124.44" width="26.86" height="9.77"></rect><rect x="288.93" y="110.6" width="26.86" height="9.77"></rect><rect x="288.93" y="96.76" width="26.86" height="9.77"></rect><rect x="358.53" y="179.79" width="26.86" height="9.77"></rect><rect x="149.95" y="193.55" width="26.86" height="9.77"></rect><rect x="219.56" y="193.55" width="26.86" height="9.77"></rect><rect x="80.35" y="193.55" width="26.86" height="9.77"></rect><rect x="115.15" y="193.55" width="26.86" height="9.77"></rect><rect x="184.75" y="193.55" width="26.86" height="9.77"></rect><rect x="323.73" y="193.55" width="26.86" height="9.77"></rect><rect x="393.33" y="193.55" width="26.86" height="9.77"></rect><rect x="254.13" y="193.55" width="26.86" height="9.77"></rect><rect x="288.93" y="193.55" width="26.86" height="9.77"></rect><rect x="358.53" y="193.55" width="26.86" height="9.77"></rect><rect x="149.95" y="207.3" width="26.86" height="9.77"></rect><rect x="219.56" y="207.3" width="26.86" height="9.77"></rect><rect x="80.35" y="207.3" width="26.86" height="9.77"></rect><rect x="115.15" y="207.3" width="26.86" height="9.77"></rect><rect x="184.75" y="207.3" width="26.86" height="9.77"></rect><rect x="323.73" y="207.3" width="26.86" height="9.77"></rect><rect x="393.33" y="207.3" width="26.86" height="9.77"></rect><rect x="254.13" y="207.3" width="26.86" height="9.77"></rect><rect x="288.93" y="207.3" width="26.86" height="9.77"></rect><rect x="358.53" y="207.3" width="26.86" height="9.77"></rect><rect x="149.95" y="221.06" width="26.86" height="9.77"></rect><rect x="219.56" y="221.06" width="26.86" height="9.77"></rect><rect x="80.35" y="221.06" width="26.86" height="9.77"></rect><rect x="115.15" y="221.06" width="26.86" height="9.77"></rect><rect x="184.75" y="221.06" width="26.86" height="9.77"></rect><rect x="323.73" y="221.06" width="26.86" height="9.77"></rect><rect x="393.33" y="221.06" width="26.86" height="9.77"></rect><rect x="254.13" y="221.06" width="26.86" height="9.77"></rect><rect x="288.93" y="221.06" width="26.86" height="9.77"></rect><rect x="358.53" y="221.06" width="26.86" height="9.77"></rect><rect x="358.53" y="165.95" width="26.86" height="9.77"></rect><rect x="358.53" y="152.11" width="26.86" height="9.77"></rect><rect x="358.53" y="138.28" width="26.86" height="9.77"></rect><rect x="358.53" y="124.44" width="26.86" height="9.77"></rect><rect x="358.53" y="110.6" width="26.86" height="9.77"></rect></g></g><g id="freepik--Speakers--inject-143"><path d="M429.44,301.06a32.47,32.47,0,1,0,32.48,32.47A32.47,32.47,0,0,0,429.44,301.06Zm0,44.22a11.75,11.75,0,1,1,11.75-11.75A11.75,11.75,0,0,1,429.44,345.28Z" style="fill:#263238"></path><path d="M404.7,261.24A25.19,25.19,0,0,0,410,282.17m18.8-41.24A25.26,25.26,0,0,0,406.81,255M454,272a25.26,25.26,0,0,0-14.49-29m-21.92,45.41A25.3,25.3,0,0,0,451,279.26m-28.42-7.09a9.13,9.13,0,1,1,12.88.84A9.13,9.13,0,0,1,422.58,272.17Z" style="fill:none;stroke:#263238;stroke-miterlimit:10"></path><path d="M443.58,249.81a21.61,21.61,0,0,0-34.05,24.75m5,7.24a21.61,21.61,0,0,0,33.59-26.52M429.44,274a7.82,7.82,0,1,1,7.82-7.82A7.82,7.82,0,0,1,429.44,274Z" style="fill:none;stroke:#263238;stroke-miterlimit:10"></path><path d="M399.44,356.78a37.78,37.78,0,0,0,28.77,14.78m-27.85-62a37.84,37.84,0,0,0-5.87,38.61M460.3,311.9a37.86,37.86,0,0,0-47-12.35m29.48,69.6a37.88,37.88,0,0,0,22.75-46.71m-36.1,25a13.68,13.68,0,1,1,13.68-13.68A13.67,13.67,0,0,1,429.44,347.44Z" style="fill:none;stroke:#263238;stroke-miterlimit:10"></path><path d="M452.18,307.47a34.77,34.77,0,0,0-54.76,39.82m8.05,11.64a34.77,34.77,0,0,0,54-42.65m-30.06,30.05A12.57,12.57,0,1,1,442,333.76,12.57,12.57,0,0,1,429.44,346.33Z" style="fill:none;stroke:#263238;stroke-miterlimit:10"></path><path d="M429.44,246.12a20,20,0,1,0,20,20A20,20,0,0,0,429.44,246.12Zm0,27.28a7.25,7.25,0,1,1,7.25-7.25A7.25,7.25,0,0,1,429.44,273.4Z" style="fill:#263238"></path><rect x="387.74" y="235.59" width="83.42" height="139.86" rx="3.94" style="fill:none;stroke:#263238;stroke-miterlimit:10"></rect><path d="M86.48,301.06A32.47,32.47,0,1,0,119,333.53,32.47,32.47,0,0,0,86.48,301.06Zm0,44.22a11.75,11.75,0,1,1,11.74-11.75A11.74,11.74,0,0,1,86.48,345.28Z" style="fill:#263238"></path><path d="M61.73,261.24A25.19,25.19,0,0,0,67,282.17m18.8-41.24A25.22,25.22,0,0,0,63.85,255M111,272a25.23,25.23,0,0,0-14.49-29M74.61,288.42A25.26,25.26,0,0,0,108,279.26m-28.41-7.09a9.12,9.12,0,1,1,12.87.84A9.12,9.12,0,0,1,79.62,272.17Z" style="fill:none;stroke:#263238;stroke-miterlimit:10"></path><path d="M100.62,249.81a21.61,21.61,0,0,0-34.05,24.75m5,7.24a21.61,21.61,0,0,0,33.59-26.52M86.48,274a7.82,7.82,0,1,1,7.82-7.82A7.82,7.82,0,0,1,86.48,274Z" style="fill:none;stroke:#263238;stroke-miterlimit:10"></path><path d="M56.48,356.78a37.78,37.78,0,0,0,28.77,14.78m-27.86-62a37.87,37.87,0,0,0-5.86,38.61m65.8-36.31a37.85,37.85,0,0,0-47-12.35m29.48,69.6a37.88,37.88,0,0,0,22.74-46.71m-36.09,25a13.68,13.68,0,1,1,13.68-13.68A13.68,13.68,0,0,1,86.48,347.44Z" style="fill:none;stroke:#263238;stroke-miterlimit:10"></path><path d="M109.22,307.47a34.77,34.77,0,0,0-54.77,39.82m8,11.64a34.77,34.77,0,0,0,54-42.65m-30,30.05a12.57,12.57,0,1,1,12.57-12.57A12.57,12.57,0,0,1,86.48,346.33Z" style="fill:none;stroke:#263238;stroke-miterlimit:10"></path><path d="M86.48,246.12a20,20,0,1,0,20,20A20,20,0,0,0,86.48,246.12Zm0,27.28a7.25,7.25,0,1,1,7.25-7.25A7.26,7.26,0,0,1,86.48,273.4Z" style="fill:#263238"></path><rect x="44.77" y="235.59" width="83.42" height="139.86" rx="3.94" style="fill:none;stroke:#263238;stroke-miterlimit:10"></rect></g><g id="freepik--Character--inject-143"><line x1="41.93" y1="386.99" x2="471.11" y2="386.99" style="fill:none;stroke:#263238;stroke-linecap:round;stroke-miterlimit:10"></line><path d="M334.1,189.42s9.84,5.3,11.35,10.22,1.51,7.56,2.65,10.59,8.7,17.39,15.88,30.25,25,38.58,29.13,46.52,7.56,17.78,5.67,29.13S369.28,344.49,360.2,340s-15.88-7.56-17.4-14.75-1.51-14.37-3.78-19.29-6.81-23.82-6.81-23.82-6.8-52.58-.75-72.24" style="fill:#407BFF;stroke:#263238;stroke-linecap:round;stroke-miterlimit:10"></path><path d="M163.35,344.07c-7,22.54-5.12,36.89-3.65,42.92H348.4c-2.16-17.77-12.55-102.63-15.26-118.44-3-17.68,8.91-66.38,5.88-73.45s-29.5-24.89-57.39-27S222,171.58,222,171.58s-22.73,9.09-37.38,16.67-28.78,17.67-31.81,33.33C151.06,230.78,176.71,300.85,163.35,344.07Z" style="fill:#407BFF;stroke:#263238;stroke-linecap:round;stroke-miterlimit:10"></path><path d="M214,211.85s-3.38,25.63-3.38,49.24" style="fill:none;stroke:#263238;stroke-linecap:round;stroke-miterlimit:10"></path><path d="M220.77,282c.2,3.24.41,6.4.64,9.4" style="fill:none;stroke:#263238;stroke-linecap:round;stroke-miterlimit:10"></path><path d="M218.72,226.69s.39,22.7,1.5,45.15" style="fill:none;stroke:#263238;stroke-linecap:round;stroke-miterlimit:10"></path><path d="M304.37,201.06s8.1,34.4,8.1,59.35" style="fill:none;stroke:#263238;stroke-linecap:round;stroke-miterlimit:10"></path><path d="M322.67,288.1c.38,6.22.59,10.08.59,10.08" style="fill:none;stroke:#263238;stroke-linecap:round;stroke-miterlimit:10"></path><path d="M307.75,194.32s10.11,29,12.14,54c.72,8.91,1.36,17.82,1.87,25.6" style="fill:none;stroke:#263238;stroke-linecap:round;stroke-miterlimit:10"></path><path d="M295.69,386.91l-1.58-8.81V358l-.49-45.16s-2-51.53-2-63.31.5-50.56-2-62.34c-1.5-7.19-8.12-14.56-13.05-19.21-7.39-1.53-15.73-2-22.73.71,0,0-12,4-22.24,8-.73,1.94-5.3,14.5-5.3,26.24,0,12.76,9.33,51,12.27,66.75s.5,54,.5,54l2.45,36.81,1.47,20.62L242,386.91Z" style="fill:#263238;stroke:#263238;stroke-linecap:round;stroke-miterlimit:10"></path><ellipse cx="255.58" cy="191.16" rx="27.49" ry="23.74" style="fill:#fff;stroke:#263238;stroke-linecap:round;stroke-miterlimit:10"></ellipse><path d="M232.67,161.17s-17.49,7.5-24.16,21.24a157.8,157.8,0,0,0-10,27.07s20,21.66,27.9,37.07,10,58.73,10.41,76.64,5,39.56,5,39.56V264.46c0-19.16-10-73.3-10.41-76.22s24.57-9.16,33.73-7.91,12.5,2.08,13.75,7.91S291,272.79,291,294.86s2.91,73.31,2.91,73.31S294.73,323.6,296,299s-1.67-62.06,3.74-74.55S321,185.74,321,185.74s-6.66-7.91-23.32-16.24-30.4-8.75-44.15-9.58S232.67,161.17,232.67,161.17Z" style="fill:#407BFF;stroke:#263238;stroke-linecap:round;stroke-miterlimit:10"></path><path d="M321,185.74a42.69,42.69,0,0,0-5.17-4.8c-4.81,8.48-15.94,28.68-19.81,40.62C291,237,292.23,319,292.23,319s-.16,3-.37,7.67c.85,20.76,2,41.48,2,41.48S294.73,323.6,296,299s-1.67-62.06,3.74-74.55S321,185.74,321,185.74Z" style="fill:#263238;stroke:#263238;stroke-linecap:round;stroke-miterlimit:10"></path><path d="M241.83,355.72c-1.1-13-2.91-35.64-2.91-44.61,0-12.91-2.5-32.91-3.34-41.65s-1.66-18.33-7.08-32.9c-4.54-12.24-22-30.05-27.49-35.46-1.66,5.05-2.49,8.38-2.49,8.38s20,21.66,27.9,37.07,10,58.73,10.41,76.64,5,39.56,5,39.56Z" style="fill:#263238;stroke:#263238;stroke-linecap:round;stroke-miterlimit:10"></path><path d="M202.81,121.88a34,34,0,0,1,7.33-19.56c7.34-9,28.12-19.15,46.45-15.89s28.93,19.15,30.56,30.56h-4.48a22.16,22.16,0,0,0-10.19-16.71c-9.77-6.11-50.52.41-56.63,4.48s-9,13-8.56,18.34Z" style="fill:#666;stroke:#263238;stroke-linecap:round;stroke-miterlimit:10"></path><path d="M211,119.84s-10.19.41-13,3.67.82,21.59,4.48,28.11,13.45,6.11,16.71,3.67,1.22-8.56,0-21.6S213.81,119,211,119.84Z" style="fill:#919191;stroke:#263238;stroke-linecap:round;stroke-miterlimit:10"></path><path d="M278.46,112.79s10-2.15,13.54.3,4.61,21.11,2.69,28.34-11.5,9.28-15.26,7.72-3.33-8-5.4-20.91S275.49,112.72,278.46,112.79Z" style="fill:#919191;stroke:#263238;stroke-linecap:round;stroke-miterlimit:10"></path><path d="M216.66,142.25s4.89,26.48,6.52,32.59,3.26,14.67,14.26,22.41,20.38,10.19,30.16,5.71,16.29-17.11,17.11-28.12-4.48-45.63-4.48-45.63l-66,.82Z" style="fill:#fff;stroke:#263238;stroke-linecap:round;stroke-miterlimit:10"></path><path d="M279.41,161.4A40.43,40.43,0,0,1,278.19,172s-13-11.41-26.89-7.33c0,0-3.67-.82-9.78,2.85a102.87,102.87,0,0,0-12.22,9s-7.34-19.15-9-23.22-3.67-11-3.67-11,4.89,26.48,6.52,32.59,4.08,16.71,15.08,24.45,19.56,8.15,29.34,3.67,16.29-17.11,17.11-28.12c.61-8.28-2.24-29.94-3.68-40.15C280.87,136.68,279.41,155.23,279.41,161.4Zm-17.93,20.37c-3.26-1.63-2-6.93-2-6.93l-6.52.41a56.87,56.87,0,0,1,.81,6.11c0,1.63-4.48,4.08-8.55,2.86s-8.15-6.93-8.15-6.93l3.26-2.85c3.26-2.86,11.81-6.11,18.33-5.3s14.26,5.7,14.26,5.7C270.85,178.1,264.74,183.4,261.48,181.77Z" style="fill:#263238;stroke:#263238;stroke-linecap:round;stroke-miterlimit:10"></path><path d="M248,145.92s-.41,7.74-3.26,9.77-11.41,1.23-16.3.41-7.74-10.59-7.74-12.63,27.3.82,27.3.82Z" style="fill:#407BFF;stroke:#263238;stroke-linecap:round;stroke-miterlimit:10;stroke-width:2px"></path><path d="M253.74,144.69s1.94,7.51,5.14,8.94,11.43-1.07,16.05-2.84,5.48-11.93,5.08-13.92-26.59,6.23-26.59,6.23Z" style="fill:#407BFF;stroke:#263238;stroke-linecap:round;stroke-miterlimit:10;stroke-width:2px"></path><path d="M249.26,72.17s-4.89-.82-15.89,1.22-27.3,16.71-27.71,21.19,4.89,27.3,4.89,30.15-.41,15.89,2,18.74,25.67,5.71,40.74,2.85c10.82-2,30.16-7.74,31.79-11.41s-5.71-20.37-5.71-20.37-2-26.48-6.93-32.19S249.26,72.17,249.26,72.17Z" style="fill:#263238;stroke:#263238;stroke-linecap:round;stroke-miterlimit:10"></path><path d="M210.55,124.73s37.9,17.52,68.86-10.19" style="fill:none;stroke:#fff;stroke-linecap:round;stroke-miterlimit:10"></path><path d="M245.16,162.42a7.75,7.75,0,0,0,8.58,3.46c4.81-1,6.11-6.11,6.11-6.11" style="fill:#fff;stroke:#263238;stroke-linecap:round;stroke-miterlimit:10"></path><polygon points="454.3 453.94 59.73 453.94 115.16 386.49 398.87 386.49 454.3 453.94" style="fill:#919191;stroke:#263238;stroke-linecap:round;stroke-miterlimit:10"></polygon><ellipse cx="294.9" cy="446.43" rx="4.16" ry="1.97" style="fill:#263238;stroke:#263238;stroke-linecap:round;stroke-miterlimit:10"></ellipse><ellipse cx="309.8" cy="446.43" rx="4.16" ry="1.97" style="fill:#263238;stroke:#263238;stroke-linecap:round;stroke-miterlimit:10"></ellipse><ellipse cx="324.7" cy="446.43" rx="4.16" ry="1.97" style="fill:#407BFF;stroke:#263238;stroke-linecap:round;stroke-miterlimit:10"></ellipse><path d="M343.77,446.43c0,1.09-1.87,2-4.17,2s-4.16-.88-4.16-2,1.87-2,4.16-2S343.77,445.34,343.77,446.43Z" style="fill:#407BFF;stroke:#263238;stroke-linecap:round;stroke-miterlimit:10"></path><path d="M358.67,446.43c0,1.09-1.86,2-4.16,2s-4.17-.88-4.17-2,1.87-2,4.17-2S358.67,445.34,358.67,446.43Z" style="fill:#263238;stroke:#263238;stroke-linecap:round;stroke-miterlimit:10"></path><path d="M373.57,446.43c0,1.09-1.86,2-4.16,2s-4.17-.88-4.17-2,1.87-2,4.17-2S373.57,445.34,373.57,446.43Z" style="fill:#263238;stroke:#263238;stroke-linecap:round;stroke-miterlimit:10"></path><path d="M388.47,446.43c0,1.09-1.86,2-4.16,2s-4.17-.88-4.17-2,1.87-2,4.17-2S388.47,445.34,388.47,446.43Z" style="fill:#263238;stroke:#263238;stroke-linecap:round;stroke-miterlimit:10"></path><path d="M130.11,446.43c0,1.09-1.86,2-4.16,2s-4.16-.88-4.16-2,1.86-2,4.16-2S130.11,445.34,130.11,446.43Z" style="fill:#263238;stroke:#263238;stroke-linecap:round;stroke-miterlimit:10"></path><path d="M145,446.43c0,1.09-1.86,2-4.16,2s-4.16-.88-4.16-2,1.86-2,4.16-2S145,445.34,145,446.43Z" style="fill:#407BFF;stroke:#263238;stroke-linecap:round;stroke-miterlimit:10"></path><path d="M159.91,446.43c0,1.09-1.86,2-4.16,2s-4.16-.88-4.16-2,1.86-2,4.16-2S159.91,445.34,159.91,446.43Z" style="fill:#263238;stroke:#263238;stroke-linecap:round;stroke-miterlimit:10"></path><path d="M174.82,446.43c0,1.09-1.87,2-4.17,2s-4.16-.88-4.16-2,1.86-2,4.16-2S174.82,445.34,174.82,446.43Z" style="fill:#263238;stroke:#263238;stroke-linecap:round;stroke-miterlimit:10"></path><path d="M189.72,446.43c0,1.09-1.87,2-4.17,2s-4.16-.88-4.16-2,1.86-2,4.16-2S189.72,445.34,189.72,446.43Z" style="fill:#407BFF;stroke:#263238;stroke-linecap:round;stroke-miterlimit:10"></path><path d="M204.62,446.43c0,1.09-1.87,2-4.17,2s-4.16-.88-4.16-2,1.87-2,4.16-2S204.62,445.34,204.62,446.43Z" style="fill:#263238;stroke:#263238;stroke-linecap:round;stroke-miterlimit:10"></path><path d="M219.52,446.43c0,1.09-1.86,2-4.16,2s-4.17-.88-4.17-2,1.87-2,4.17-2S219.52,445.34,219.52,446.43Z" style="fill:#263238;stroke:#263238;stroke-linecap:round;stroke-miterlimit:10"></path><path d="M371.41,413.25c7.82,13.88-9.16,26.6-39,26.6s-55.14-12.72-56.44-26.6c-1.14-12.2,17.17-21.07,40.77-21.07S364.53,401.05,371.41,413.25Z" style="fill:#919191;stroke:#263238;stroke-linecap:round;stroke-miterlimit:10"></path><path d="M234.22,413.25c-1.56,13.88-27.14,26.6-56.93,26.6s-46.54-12.72-38.46-26.6c7.11-12.2,31.41-21.07,55-21.07S235.59,401.05,234.22,413.25Z" style="fill:#919191;stroke:#263238;stroke-linecap:round;stroke-miterlimit:10"></path><path d="M363.71,410.23c6.74,12-7.91,22.94-33.61,22.94s-47.57-11-48.69-22.94c-1-10.53,14.81-18.18,35.17-18.18S357.77,399.7,363.71,410.23Z" style="fill:#263238;stroke:#263238;stroke-linecap:round;stroke-miterlimit:10"></path><path d="M227.81,410.23c-1.35,12-23.42,22.94-49.12,22.94s-40.15-11-33.17-22.94c6.13-10.53,27.09-18.18,47.46-18.18S229,399.7,227.81,410.23Z" style="fill:#263238;stroke:#263238;stroke-linecap:round;stroke-miterlimit:10"></path><polygon points="90.09 436.14 83.61 436.14 114.38 396.7 119.7 396.7 90.09 436.14" style="fill:#263238;stroke:#263238;stroke-linecap:round;stroke-miterlimit:10"></polygon><polygon points="112.28 436.14 105.81 436.14 132.64 396.7 137.96 396.7 112.28 436.14" style="fill:#263238;stroke:#263238;stroke-linecap:round;stroke-miterlimit:10"></polygon><polygon points="399.9 436.14 393.43 436.14 369.22 396.7 374.55 396.7 399.9 436.14" style="fill:#263238;stroke:#263238;stroke-linecap:round;stroke-miterlimit:10"></polygon><polygon points="245.91 427.5 239.68 427.5 241.4 406.3 247.01 406.3 245.91 427.5" style="fill:#263238;stroke:#263238;stroke-linecap:round;stroke-miterlimit:10"></polygon><polygon points="268.13 427.5 261.9 427.5 261.42 406.3 267.02 406.3 268.13 427.5" style="fill:#263238;stroke:#263238;stroke-linecap:round;stroke-miterlimit:10"></polygon><polygon points="422.1 436.14 415.62 436.14 387.48 396.7 392.81 396.7 422.1 436.14" style="fill:#263238;stroke:#263238;stroke-linecap:round;stroke-miterlimit:10"></polygon><polygon points="280.1 449.93 227.06 449.93 228.94 435.14 278.65 435.14 280.1 449.93" style="fill:#fff;stroke:#263238;stroke-linecap:round;stroke-miterlimit:10"></polygon><polygon points="275.37 401.56 233.2 401.56 234.4 392.09 274.44 392.09 275.37 401.56" style="fill:#fff;stroke:#263238;stroke-linecap:round;stroke-miterlimit:10"></polygon><polygon points="443.86 471.8 69.58 471.8 59.73 453.94 453.7 453.94 443.86 471.8" style="fill:#263238;stroke:#263238;stroke-linecap:round;stroke-miterlimit:10"></polygon><path d="M185.89,228.25c-.37-3.29-.63-5.47-.63-5.47" style="fill:none;stroke:#263238;stroke-linecap:round;stroke-miterlimit:10"></path><path d="M164.66,206.58s-8.49,5.29-19.3,18.33-13,13.56-13.28,19.2a109.71,109.71,0,0,1-2.43,15.95c-.57,2.46-18.14,36.82-21.17,38.71s-21.24,20-22.08,28.05S95,348,99.3,351.6s32.39,10.13,43,4.81,21.68-9,22.17-24.64c.46-14.79.69-12.14,1.83-17.06s7.55-25.79,7.55-25.79,14.71-24.42,14.58-32.75c-.08-4.57-1-14.21-1.84-22" style="fill:#407BFF;stroke:#263238;stroke-linecap:round;stroke-miterlimit:10"></path><path d="M171.38,247.39C165,239,157,235.2,149.62,237.82c-7.92,2.83-9.25,4.07-9.25,4.07" style="fill:none;stroke:#263238;stroke-linecap:round;stroke-miterlimit:10"></path><path d="M176.37,255.52a40.8,40.8,0,0,0-2.38-4.3" style="fill:none;stroke:#263238;stroke-linecap:round;stroke-miterlimit:10"></path><path d="M144.24,238.65s8.26-4.31,14.13-5,19.48,7.64,19.48,7.64" style="fill:none;stroke:#263238;stroke-linecap:round;stroke-miterlimit:10"></path><line x1="129.73" y1="284.52" x2="134.29" y2="281.44" style="fill:none;stroke:#263238;stroke-linecap:round;stroke-miterlimit:10"></line><line x1="110.9" y1="297.26" x2="125.01" y2="287.72" style="fill:none;stroke:#263238;stroke-linecap:round;stroke-miterlimit:10"></line><path d="M140.11,352.28s4-10.48,4.38-16.61-9.18-14.06-17.05-15.89-19.19,2.27-23.4,7S97.81,335.7,98,337.29s3.93,7.65,5,12,15.54,6.72,23,8S140.11,352.28,140.11,352.28Z" style="fill:#263238;stroke:#263238;stroke-linecap:round;stroke-miterlimit:10"></path><path d="M146.64,358.75s3.13,14.85,3.76,19.23-3.49,10.95-4.48,15.2-5.57,12.82-8.49,14.26-6.32-2.18-1.92-12,5.1-17.87,4.2-22.08-4.21-9.22-1.92-12S144,355.07,146.64,358.75Z" style="fill:#fff;stroke:#263238;stroke-linecap:round;stroke-miterlimit:10"></path><path d="M140.3,343.13a20,20,0,0,0-24.77-6.92,7,7,0,0,0-.67.33c-4.51,2.62-7.65,6.79-11.92,12.8-5.39,7.56-14.89,26.09-14.56,31.35s8.2,13.83,9.51,19.32,5.06,9.48,7.52,10.05a11.2,11.2,0,0,0,4.65,0s-.27,5.64,2.22,8.3,7.53,3.3,8.1.85,5.14-15.4,5.71-17.86,3.47-12.68,3.47-12.68l-1.17,18.4s-4.94,12.33-4.3,14,5.33,3.84,10.26-1.76,7.56-16.9,8.48-20.84,4.55-28.5,4.71-33.64-2.74-14.62-6.14-20.07C141.06,344.27,140.69,343.7,140.3,343.13Z" style="fill:#fff;stroke:#263238;stroke-linecap:round;stroke-miterlimit:10"></path><path d="M110.06,410.1s2.16-14.65,2.32-18.37,5-18.38,5-18.38" style="fill:none;stroke:#263238;stroke-linecap:round;stroke-miterlimit:10"></path><path d="M97.89,400s-.63-11.09.38-14.39S102.59,368,102.59,368" style="fill:none;stroke:#263238;stroke-linecap:round;stroke-miterlimit:10"></path><line x1="129.56" y1="388.71" x2="131.75" y2="376.23" style="fill:none;stroke:#263238;stroke-linecap:round;stroke-miterlimit:10"></line><path d="M366.12,284.72s-1.56,1-3.92,2.67" style="fill:none;stroke:#263238;stroke-linecap:round;stroke-miterlimit:10"></path><path d="M357.55,290.74c-7.34,5.43-16.85,13.24-17.65,17.77-1.31,7.46,2.58,6.8,2.58,6.8s-8.34,18-11.81,24.45,5.68,21.67,16.75,27.62,37.07,8.44,43.07,3.09,16.45-55.5,14.29-62.63-13.37-15-20-17a81.59,81.59,0,0,0-14.54-2.58" style="fill:#407BFF;stroke:#263238;stroke-linecap:round;stroke-miterlimit:10"></path><path d="M374.61,300a21.78,21.78,0,0,1,5.17.54" style="fill:none;stroke:#263238;stroke-linecap:round;stroke-miterlimit:10"></path><path d="M344.59,313.67s5.73-6.15,12.25-9.53a40.7,40.7,0,0,1,12.4-3.74" style="fill:none;stroke:#263238;stroke-linecap:round;stroke-miterlimit:10"></path><path d="M341.6,340.74s-8.91,7.27-7.46,13.93,19.38,18.81,27.45,18.29,18.25-5.73,17.87-14.92-11.36-15.9-20-19.65S345.77,337.83,341.6,340.74Z" style="fill:#263238;stroke:#263238;stroke-linecap:round;stroke-miterlimit:10"></path><path d="M375.19,374s.42-6.91-10.18-16.07-21.48-5.72-26.24-2.4-14.89,14.68-16,19.76S326.19,390,325.44,396s-9.05,9.75-3.91,13.87,12.86-1.87,14.14-5.19,2.94-16.61,2.94-16.61,9.49,21.64,11.79,27.58,7.5,13.12,12.27,13.28,5-5.46,5-5.46,4.66,4.49,9.11,3.74,2.73-4.44,1.5-8.51-2.31-9.43-2.31-9.43,6.32,5.14,9.05,7.66,9.22,6.37,11,2.67-3.75-8.3-3.75-8.3a61.77,61.77,0,0,0-2-12c-1.56-5-7.66-11.84-10.88-17.46S375.19,374,375.19,374Z" style="fill:#fff;stroke:#263238;stroke-linecap:round;stroke-miterlimit:10"></path><path d="M367.7,423.51a116.37,116.37,0,0,1-5.33-12.92c-2.28-6.78-4.77-17.67-5.74-21.4" style="fill:none;stroke:#263238;stroke-linecap:round;stroke-miterlimit:10"></path><path d="M376,409.31s-2.85-9.88-4.22-14.38a88.69,88.69,0,0,1-2.19-9.41" style="fill:none;stroke:#263238;stroke-linecap:round;stroke-miterlimit:10"></path><path d="M392.28,411.34s-3.8-5.67-6-9.55-7.7-15.39-7.7-15.39" style="fill:none;stroke:#263238;stroke-linecap:round;stroke-miterlimit:10"></path></g></svg>